<svg width="30" height="30" viewBox="0 0 30 30" fill="none" xmlns="http://www.w3.org/2000/svg">
<rect width="30" height="30" rx="4" fill="black"/>
<path d="M5.17 9.526C5.71 9.43 6.31 9.358 6.97 9.31C7.63 9.25 8.29 9.22 8.95 9.22C9.622 9.22 10.3 9.274 10.984 9.382C11.668 9.478 12.28 9.682 12.82 9.994C13.372 10.294 13.822 10.72 14.17 11.272C14.518 11.812 14.692 12.532 14.692 13.432C14.692 14.224 14.542 14.902 14.242 15.466C13.942 16.018 13.54 16.468 13.036 16.816C12.544 17.164 11.98 17.422 11.344 17.59C10.708 17.746 10.054 17.824 9.382 17.824C9.322 17.824 9.22 17.824 9.076 17.824C8.932 17.824 8.776 17.824 8.608 17.824C8.452 17.812 8.302 17.8 8.158 17.788C8.014 17.776 7.906 17.764 7.834 17.752V22H5.17V9.526ZM9.13 11.56C8.878 11.56 8.632 11.566 8.392 11.578C8.164 11.59 7.978 11.614 7.834 11.65V15.394C7.882 15.406 7.96 15.418 8.068 15.43C8.176 15.442 8.29 15.454 8.41 15.466C8.53 15.466 8.638 15.472 8.734 15.484C8.842 15.484 8.926 15.484 8.986 15.484C9.334 15.484 9.682 15.46 10.03 15.412C10.378 15.364 10.684 15.262 10.948 15.106C11.224 14.95 11.446 14.74 11.614 14.476C11.782 14.2 11.866 13.834 11.866 13.378C11.866 12.994 11.788 12.688 11.632 12.46C11.476 12.22 11.266 12.034 11.002 11.902C10.75 11.77 10.456 11.68 10.12 11.632C9.796 11.584 9.466 11.56 9.13 11.56ZM21.5884 19.318H17.3404L16.3144 22H13.6504L18.5824 9.31H20.5444L25.4944 22H22.6684L21.5884 19.318ZM18.0784 17.212H20.9584L19.9864 14.584L19.5544 12.586H19.4644L19.0324 14.602L18.0784 17.212Z" fill="white"/>
</svg>
